<?xml version="1.0" standalone="no"?>
<svg xmlns="http://www.w3.org/2000/svg" viewBox="0 0 157.776 36" width="157.776" height="36"><g fill="#fbf005" color="#fbf005" transform="translate(0 4) scale(0.5833334)"><svg width="48.0" height="48.0" x="0.0" y="0.0" viewBox="0 0 48 48"><g><path d="M36.9,25.4c0-7.1-5.8-12.9-12.9-12.9s-12.9,5.8-12.9,12.9S16.9,38.4,24,38.4S36.9,32.6,36.9,25.4z"></path><path d="M13.2,8.8c0.3,0,0.7-0.1,1-0.3c3-1.7,6.4-2.6,9.8-2.6c3.4,0,6.8,0.9,9.7,2.6c0.9,0.5,2.1,0.2,2.7-0.7   c0.5-0.9,0.2-2.1-0.7-2.7C32.1,3,28.1,1.9,24,1.9c-4.2,0-8.2,1.1-11.8,3.2c-0.9,0.5-1.3,1.7-0.7,2.7C11.8,8.4,12.5,8.8,13.2,8.8z"></path><path d="M45.5,23.4c-1.1,0-2,0.9-2,2c0,7-3.7,13.5-9.8,17c-0.9,0.5-1.3,1.7-0.7,2.7c0.4,0.6,1,1,1.7,1c0.3,0,0.7-0.1,1-0.3   c7.2-4.2,11.7-12,11.7-20.3v-0.1C47.5,24.3,46.6,23.4,45.5,23.4z"></path><path d="M14.2,42.4c-6-3.5-9.8-10-9.8-16.9c0-1.1-0.9-2-2-2c0,0,0,0,0,0c-1.1,0-2,0.9-2,2c0,8.4,4.5,16.1,11.8,20.3   c0.3,0.2,0.6,0.3,1,0.3c0.7,0,1.3-0.4,1.7-1C15.5,44.1,15.2,43,14.2,42.4z"></path></g></svg></g><path fill="#fbf005" fill-rule="nonzero" d="M4.10 20.81L0 20.81L0 0.19L4.10 0.19L4.10 7.56L6.05 7.56L6.05 0.19L10.15 0.19L10.15 20.81L6.05 20.81L6.05 11.45L4.10 11.45L4.10 20.81ZM16.75 21Q14.21 21 12.97 19.56Q11.74 18.12 11.74 15.29L11.74 15.29L11.74 0.19L15.74 0.19L15.74 15.12Q15.74 16.10 15.94 16.66Q16.13 17.21 16.75 17.21L16.75 17.21Q17.38 17.21 17.57 16.67Q17.76 16.13 17.76 15.12L17.76 15.12L17.76 0.19L21.77 0.19L21.77 15.29Q21.77 18.12 20.53 19.56Q19.30 21 16.75 21L16.75 21ZM28.25 21Q25.44 21 24.19 19.61Q22.94 18.22 22.94 15.12L22.94 15.12L22.94 13.10L27 13.10L27 15.67Q27 17.21 27.98 17.21L27.98 17.21Q28.54 17.21 28.75 16.88Q28.97 16.56 28.97 15.79L28.97 15.79Q28.97 14.78 28.73 14.12Q28.49 13.46 28.12 13.02Q27.74 12.58 26.78 11.64L26.78 11.64L25.01 9.86Q22.94 7.85 22.94 5.40L22.94 5.40Q22.94 2.76 24.16 1.38Q25.37 0 27.70 0L27.70 0Q30.48 0 31.70 1.48Q32.93 2.95 32.93 6.10L32.93 6.10L28.73 6.10L28.70 4.68Q28.70 4.27 28.48 4.03Q28.25 3.79 27.84 3.79L27.84 3.79Q27.36 3.79 27.12 4.06Q26.88 4.32 26.88 4.78L26.88 4.78Q26.88 5.78 28.03 6.86L28.03 6.86L30.43 9.17Q31.27 9.98 31.82 10.72Q32.38 11.45 32.71 12.44Q33.05 13.44 33.05 14.81L33.05 14.81Q33.05 17.86 31.93 19.43Q30.82 21 28.25 21L28.25 21ZM40.32 20.81L36.19 20.81L36.19 4.15L33.74 4.15L33.74 0.19L42.77 0.19L42.77 4.15L40.32 4.15L40.32 20.81ZM52.30 20.81L43.92 20.81L43.92 0.19L48.05 0.19L48.05 17.30L52.30 17.30L52.30 20.81ZM61.97 20.81L53.45 20.81L53.45 0.19L61.70 0.19L61.70 4.18L57.65 4.18L57.65 8.18L61.54 8.18L61.54 12.07L57.65 12.07L57.65 16.80L61.97 16.80L61.97 20.81ZM74.86 20.81L70.73 20.81L70.73 4.15L68.28 4.15L68.28 0.19L77.30 0.19L77.30 4.15L74.86 4.15L74.86 20.81ZM82.25 20.81L78.26 20.81L78.26 0.19L82.25 0.19L82.25 20.81ZM87.62 20.81L83.90 20.81L83.90 0.19L90.19 0.19L91.92 12.77L93.65 0.19L99.98 0.19L99.98 20.81L96.22 20.81L96.22 5.95L93.84 20.81L90.14 20.81L87.62 5.95L87.62 20.81ZM110.33 20.81L101.81 20.81L101.81 0.19L110.06 0.19L110.06 4.18L106.01 4.18L106.01 8.18L109.90 8.18L109.90 12.07L106.01 12.07L106.01 16.80L110.33 16.80L110.33 20.81ZM111.70 20.81L111.70 0.19L118.03 0.19Q119.54 0.19 120.37 0.88Q121.20 1.56 121.49 2.80Q121.78 4.03 121.78 5.95L121.78 5.95Q121.78 7.70 121.32 8.69Q120.86 9.67 119.74 10.06L119.74 10.06Q120.67 10.25 121.09 10.99Q121.51 11.74 121.51 13.01L121.51 13.01L121.46 20.81L117.43 20.81L117.43 12.74Q117.43 11.88 117.10 11.64Q116.76 11.40 115.87 11.40L115.87 11.40L115.87 20.81L111.70 20.81ZM115.90 7.82L116.88 7.82Q117.74 7.82 117.74 5.95L117.74 5.95Q117.74 5.14 117.67 4.73Q117.60 4.32 117.41 4.16Q117.22 4.01 116.86 4.01L116.86 4.01L115.90 4.01L115.90 7.82Z" transform="translate(36, 7.596)"></path></svg>